<svg width="527" height="83" viewBox="0 0 527 83" fill="none" xmlns="http://www.w3.org/2000/svg">
<path d="M17.9 4.1C18.1 3.2 18.1 2.3 18.2 1.4L0.7 0.899997C0.9 24.1 2.2 47.2 4.8 70.2C3.8 70.3 2.6 70.5 1.6 70.7L2.8 77.6C9.2 76.5 15.6 76.1 22.3 76.2L22.4 69.1C19.9 69 17.5 69.1 15.1 69.2C15.1 65.2 15.1 61.3 15.1 57.3C50.9 57.1 57.3 2.6 17.9 4.1ZM15.3 46.7C15.6 38.3 16.1 29.9 16.6 21.3C40.2 16 31.5 46.1 15.3 46.7ZM95.5563 47.9L95.1563 42.6C93.8563 42.7 92.6563 42.8 91.4563 42.8C92.2563 34.7 93.2563 26.7 94.9563 18.8C95.6563 18.8 96.5563 18.8 97.2563 18.8V13.5C91.2563 13.5 85.2563 12.8 79.1563 11.7L78.0562 17.1C78.7563 17.1 79.6563 17.2 80.4563 17.4C79.9563 26.2 79.8563 34.7 80.0563 43.2C75.9563 43.4 71.7563 43.5 67.5563 43.5C68.0563 33.6 68.2563 23.8 68.2563 13.9C69.0563 13.8 69.7563 13.8 70.4563 13.7L69.7563 8.3C62.7563 8.99999 55.5563 9.8 48.6562 10.2L49.0563 15.5C49.8563 15.5 50.6563 15.5 51.4563 15.4C52.5563 24.6 53.4563 33.9 54.0563 43.4C52.3563 43.3 50.6563 43.3 48.9563 43.2L48.7563 48.6C50.6563 48.6 52.5563 48.7 54.4563 48.7C54.7563 56.1 55.0563 63.2 55.2562 70.5L51.4563 70.6L51.7563 76L69.0563 75.4L68.6563 70L65.4563 70.1C66.1563 63 66.8563 56 67.2563 48.8C71.6563 48.8 75.9563 48.7 80.3563 48.6C80.5563 54 80.9563 59.4 81.5563 64.7L78.5563 64.9L78.7563 70.2L92.6563 69.7L92.4563 64.3L90.2563 64.4C90.3563 59 90.5563 53.5 90.9563 48.2C92.5563 48.1 93.8563 48 95.5563 47.9ZM107.816 45.1C106.416 44.9 105.116 44.9 103.716 44.7L103.516 51.6H106.216L103.616 62.1H100.216L100.116 67.6C104.616 67.7 109.216 68.1 113.716 68.8L114.516 63.2L111.816 62.9L116.016 51.5C119.216 51.3 122.316 51.1 125.516 51C126.516 56.5 127.516 62.1 128.816 67.5C126.816 67.8 125.016 68.1 123.216 68.6L124.416 74C129.616 72.9 134.916 72.2 140.216 72L140.116 66.5C139.016 66.5 138.016 66.6 136.916 66.6C136.316 61.2 135.716 55.7 135.316 50.1C136.116 50.1 137.016 50 137.816 49.9L137.416 46H135.016C134.316 35 134.216 23 134.416 12C126.216 11.3 121.416 10.8 115.616 10.2L107.816 45.1ZM118.216 45.7L122.816 33.2C123.316 37.5 123.916 41.8 124.616 46L118.216 45.7ZM191.697 17.6L191.197 11.2C183.997 11.9 176.497 11.3 169.597 9.49999L168.197 15.7C170.297 16.2 172.197 16.5 174.197 16.9C174.197 27.7 174.297 38.5 174.697 49.3C168.397 38.9 162.297 28.3 156.397 17.5C156.497 16.2 156.497 14.8 156.597 13.4L142.397 14C143.697 31 144.697 48 145.197 65.1C144.197 65.1 142.997 65.2 141.997 65.4L142.597 71.7C147.297 71.2 151.997 70.9 156.497 71.3L157.097 64.9C155.897 64.9 154.897 64.9 153.897 64.9C154.597 56.9 154.997 49.1 155.397 41.1C161.897 49.8 168.497 58.3 175.097 66.7C175.197 69.2 175.297 71.7 175.497 74.4H183.697C184.897 55.4 186.197 36.7 188.297 17.8C189.397 17.8 190.597 17.7 191.697 17.6ZM240.352 9.3C220.652 9.6 200.752 9.49999 194.752 9.2C195.652 14.3 196.152 19.8 196.252 25.1L201.952 25C201.952 23.6 201.852 22.3 201.752 20.8L209.252 20.4C211.152 36.1 212.152 52 212.352 68C210.152 68.1 208.352 68.1 206.452 68.3L206.952 74.5C215.552 74.3 225.552 74.1 232.052 74.2L232.252 68.1C228.652 67.9 223.952 67.7 222.152 67.7C223.852 51.6 224.752 35.4 224.852 19.1L234.052 18.5C233.952 21.2 233.952 24.1 233.952 26.9H239.552C239.552 21.1 239.852 15.2 240.352 9.3ZM262.49 14C246.69 15.2 241.89 32 243.09 44.9C243.29 47.6 243.79 50.4 244.49 53C250.79 75 276.69 76.6 283.19 53.1C287.49 36.7 281.69 12.6 262.49 14ZM256.99 26.9C261.59 19.2 269.49 22.4 271.09 32.8C271.69 37.4 271.29 42.8 270.19 47.3C266.79 61.8 255.39 65.6 253.19 47.3C252.49 40.3 253.69 32.8 256.99 26.9ZM337.238 65.3C337.437 47 338.238 28.6 339.638 10.3L325.538 10.2C325.538 10.6 314.438 43.5 314.438 43.5L305.238 19.3C306.138 19.2 306.938 19 307.738 18.7L306.638 12.7C300.338 14.1 293.938 14.1 287.638 13L286.637 19C287.538 19.2 288.538 19.4 289.438 19.5C290.338 36 290.838 52.6 291.238 69.3C290.038 69.3 289.038 69.4 287.838 69.4L288.338 75.6C292.938 75.4 297.738 75.4 302.438 75.7L302.738 69.5C301.738 69.4 300.738 69.4 299.738 69.4C300.538 59.9 301.238 50.6 301.838 41.3L310.438 56.7H318.638L326.938 40C327.238 48.7 327.838 57.1 328.738 65.5C328.038 65.5 327.438 65.8 326.938 65.8L327.238 72C331.838 71.6 336.238 71.4 340.638 71.6L340.838 65.3C339.638 65.3 338.337 65.3 337.238 65.3ZM415.97 40.7C422.27 35.8 424.77 26.7 422.07 19.1C415.47 0.699994 384.37 3.7 373.57 4.79999L375.17 22.1C376.17 22 377.17 21.9 378.17 21.8C379.27 36.5 380.37 51.3 381.77 66C379.17 65.8 376.47 65.6 373.87 65.3L372.37 75.2C388.47 78.7 411.77 82.4 425.57 72C430.27 68.3 432.27 63.8 432.27 59.4C432.27 50.2 423.87 43.3 415.97 40.7ZM393.97 36.5C394.37 31.1 394.77 25.7 394.97 20.3C425.97 20.5 415.47 37.4 393.97 36.5ZM392.77 65.8C392.87 60.4 393.37 50.6 393.57 45.2C427.37 40.7 423.47 69.2 392.77 65.8ZM456.24 14C440.44 15.2 435.64 32 436.84 44.9C437.04 47.6 437.54 50.4 438.24 53C444.54 75 470.44 76.6 476.94 53.1C481.24 36.7 475.44 12.6 456.24 14ZM450.74 26.9C455.34 19.2 463.24 22.4 464.84 32.8C465.44 37.4 465.04 42.8 463.94 47.3C460.54 61.8 449.14 65.6 446.94 47.3C446.24 40.3 447.44 32.8 450.74 26.9ZM526.388 9.3C506.688 9.6 486.788 9.49999 480.788 9.2C481.688 14.3 482.188 19.8 482.288 25.1L487.988 25C487.988 23.6 487.888 22.3 487.788 20.8L495.288 20.4C497.188 36.1 498.188 52 498.388 68C496.188 68.1 494.388 68.1 492.488 68.3L492.988 74.5C501.588 74.3 511.588 74.1 518.088 74.2L518.288 68.1C514.688 67.9 509.988 67.7 508.188 67.7C509.888 51.6 510.788 35.4 510.888 19.1L520.088 18.5C519.988 21.2 519.988 24.1 519.988 26.9H525.588C525.588 21.1 525.888 15.2 526.388 9.3Z" fill="white"/>
</svg>
